<svg width="178" height="36" viewBox="0 0 178 36" fill="none" xmlns="http://www.w3.org/2000/svg">
<g clip-path="url(#clip0_288_4493)">
<path d="M39.245 8.35425L37.3761 11.5785L28.0276 27.6997H31.7652L33.4035 24.876H45.0864L46.7247 27.6997H50.4623L41.1138 11.5785L39.245 8.35425ZM42.9261 21.1522H35.5593L39.2427 14.8005L42.9261 21.1522Z" fill="#121215"/>
<path d="M174.262 27.6975H178L168.651 11.5763L166.783 8.35205L164.914 11.5763L155.565 27.6975H159.303L160.941 24.8738H172.624L174.262 27.6975ZM163.101 21.1523L166.785 14.8005L170.468 21.1523H163.101Z" fill="#121215"/>
<path d="M82.0445 8.35425L80.1757 11.5785L70.8271 27.6997H74.5648L76.2031 24.876H87.886L89.5243 27.6997H93.2619L83.9133 11.5785L82.0445 8.35425ZM85.7279 21.1522H78.3611L82.0445 14.8005L85.7279 21.1522Z" fill="#121215"/>
<path d="M112.438 15.3451C112.438 11.4998 109.279 8.35432 105.417 8.35432H99.022V8.34082H95.2844V27.6976H99.022V22.3358H105.417C105.48 22.3358 105.544 22.3336 105.607 22.3313L109.67 27.6976H113.629L108.877 21.4201C110.999 20.2141 112.438 17.9393 112.438 15.3451ZM99.022 12.0758H105.417C107.227 12.0758 108.701 13.5428 108.701 15.3451C108.701 17.1473 107.227 18.6143 105.417 18.6143H99.022V12.0736V12.0758Z" fill="#121215"/>
<path d="M129.28 19.4557C129.28 22.113 127.11 24.2752 124.442 24.2752C121.773 24.2752 119.604 22.113 119.604 19.4557V8.33398H115.866V19.4557C115.866 24.1717 119.705 27.9967 124.444 27.9967C126.812 27.9967 128.957 27.0405 130.509 25.4947C132.062 23.949 133.022 21.8137 133.022 19.4557V8.33398H129.284V19.4557H129.28Z" fill="#121215"/>
<path d="M145.512 8.33404H137.291V12.0555V23.976V27.6975H145.512C150.876 27.6975 155.226 23.3663 155.226 18.0248V18.0045C155.226 12.663 150.876 8.33179 145.512 8.33179V8.33404ZM145.512 23.976H141.028V12.0555H145.512C148.806 12.0555 151.486 14.724 151.486 18.0045C151.486 21.285 148.806 23.9738 145.512 23.9738V23.976Z" fill="#121215"/>
<path d="M70.4746 16.1325H60.6063V19.8563H66.4455C65.6636 22.3268 63.3451 24.12 60.6063 24.12C57.2258 24.12 54.4847 21.3908 54.4847 18.0248C54.4847 14.6588 57.2258 11.9295 60.6063 11.9295C62.2966 11.9295 63.8265 12.6113 64.9337 13.7138L67.5844 11.0745C65.7992 9.29703 63.3316 8.19678 60.6063 8.19678C55.1558 8.19678 50.738 12.5955 50.738 18.0225C50.738 23.4495 55.1558 27.8483 60.6063 27.8483C66.0568 27.8483 70.4566 23.4653 70.4746 18.054C70.4746 18.0495 70.4746 18.0428 70.4746 18.0383V18.0225V16.1325Z" fill="#121215"/>
<path d="M13.92 12.42V3.63825L10.3225 0L0.0135585 10.4377H0V25.7985H0.0180779L3.77377 29.5155V22.6507L13.92 12.4177V12.42Z" fill="#121215"/>
<path d="M20.6022 10.4468H20.6474L16.8894 6.64429V13.6373L6.74316 23.8703V32.4585L10.3249 36.0023L20.6474 25.7895H20.6022V10.4468Z" fill="#121215"/>
</g>
<defs>
<clipPath id="clip0_288_4493">
<rect width="178" height="36" fill="white"/>
</clipPath>
</defs>
</svg>
